<svg xmlns="http://www.w3.org/2000/svg">
	<defs>
		<symbol id="ico-star" viewBox="0 0 24 22">
			<g fill-rule="evenodd">
				<path fill-rule="evenodd" clip-rule="evenodd" d="M12 2.38853L9.25652 6.1406C9.25652 6.1406 9.25652 6.14059 9.25652 6.1406C8.76282 6.81581 8.06988 7.31926 7.27517 7.58014L2.85891 9.02987L5.57958 12.7985C5.57959 12.7985 5.57958 12.7985 5.57958 12.7985C6.0692 13.4767 6.33389 14.2914 6.33642 15.1278L6.35049 19.7759L10.7754 18.3529C11.5717 18.0969 12.4282 18.0969 13.2245 18.3529L17.6495 19.7759L17.6636 15.1278C17.6661 14.2914 17.9308 13.4767 18.4204 12.7986C18.4204 12.7985 18.4204 12.7986 18.4204 12.7986L21.1411 9.02993L16.7248 7.58014C15.9301 7.31926 15.2372 6.81581 14.7435 6.14063L12 2.38853ZM10.3856 1.208C11.1846 0.115319 12.8154 0.115319 13.6144 1.208L16.3579 4.96011C16.3579 4.96012 16.3579 4.96011 16.3579 4.96011C16.6048 5.29773 16.9513 5.54947 17.3486 5.6799C17.3486 5.67991 17.3486 5.6799 17.3486 5.6799L21.7649 7.12963C23.0509 7.55185 23.5549 9.10299 22.7627 10.2005L20.042 13.9692C19.7972 14.3082 19.6649 14.7156 19.6636 15.1338L19.6495 19.7819C19.6453 21.1353 18.3261 22.0943 17.0373 21.6799L12.6123 20.2569C12.6123 20.2569 12.6123 20.2569 12.6123 20.2569C12.2142 20.1289 11.7859 20.1289 11.3877 20.2569C11.3877 20.2569 11.3878 20.2569 11.3877 20.2569L6.96277 21.6799C5.67402 22.0943 4.3546 21.1355 4.3505 19.7819L4.33643 15.1338C4.33516 14.7156 4.20281 14.3083 3.95804 13.9693L1.23732 10.2005C1.23732 10.2005 1.23733 10.2005 1.23732 10.2005C0.444978 9.103 0.94901 7.55183 2.23511 7.12964L6.65138 5.6799C7.04874 5.54946 7.3952 5.29775 7.64205 4.96015L10.3856 1.208Z"/>
			</g>
		</symbol>
		<symbol id="ico-message" viewBox="0 0 24 24">
			<g fill-rule="evenodd">
				<path fill-rule="evenodd" clip-rule="evenodd" d="M0 11.6225C0 5.20357 5.20357 0 11.6225 0H13.5229C19.3093 0 24 4.69077 24 10.4771C24 15.7365 19.7365 20 14.4771 20H12.5148C11.4021 20 10.5 20.9021 10.5 22.0148V22.9456C10.5 23.7053 9.70966 24.2043 9.02449 23.8814L7.06502 22.9593L7.06501 22.9593C2.75255 20.9299 0 16.5926 0 11.8264V11.6225ZM11.6225 2C6.30814 2 2 6.30814 2 11.6225V11.8264C2 15.8178 4.30511 19.4501 7.91661 21.1497L8.54038 21.4432C8.81784 19.4967 10.4916 18 12.5148 18H14.4771C18.6319 18 22 14.6319 22 10.4771C22 5.79533 18.2047 2 13.5229 2H11.6225ZM9.87541 22.0715L9.87653 22.072L9.87699 22.0722C9.87647 22.0719 9.87594 22.0717 9.87541 22.0715Z"/>
				<path d="M16 7H8C7.44772 7 7 7.44772 7 8C7 8.55228 7.44772 9 8 9H16C16.5523 9 17 8.55228 17 8C17 7.44772 16.5523 7 16 7Z"/>
				<path d="M16 12H8C7.44772 12 7 12.4477 7 13C7 13.5523 7.44772 14 8 14H16C16.5523 14 17 13.5523 17 13C17 12.4477 16.5523 12 16 12Z"/>
			</g>
		</symbol>
		<symbol id="ico-download" viewBox="0 0 24 22">
			<g fill-rule="evenodd">
				<path fill-rule="evenodd" clip-rule="evenodd" d="M1 15C1.55228 15 2 15.4477 2 16V17C2 18.6568 3.34315 20 5 20H19C20.6568 20 22 18.6568 22 17V16C22 15.4477 22.4477 15 23 15C23.5523 15 24 15.4477 24 16V17C24 19.7614 21.7614 22 19 22H5C2.23857 22 0 19.7614 0 17V16C0 15.4477 0.447715 15 1 15Z"/>
				<path fill-rule="evenodd" clip-rule="evenodd" d="M11 13.5433L5.71573 8.12771L4.28427 9.52447L11.2816 16.6956C11.2881 16.7024 11.2948 16.7091 11.3016 16.7157C11.6969 17.1014 12.33 17.0937 12.7157 16.6984L19.7157 9.52447C20.1014 9.12918 20.0937 8.49606 19.6984 8.11036C19.3031 7.72466 18.67 7.73243 18.2843 8.12771L13 13.5433V1H11V13.5433ZM11 15.9992V16H12"/>
			</g>
		</symbol>
		<symbol id="ico-share" viewBox="0 0 24 24">
			<g fill-rule="evenodd">
				<path fill-rule="evenodd" clip-rule="evenodd" d="M0 13C0 10.2386 2.23857 8 5 8C7.76143 8 10 10.2386 10 13C10 15.7614 7.76143 18 5 18C2.23857 18 0 15.7614 0 13ZM5 10C3.34315 10 2 11.3432 2 13C2 14.6568 3.34315 16 5 16C6.65685 16 8 14.6568 8 13C8 11.3432 6.65685 10 5 10Z"/>
				<path fill-rule="evenodd" clip-rule="evenodd" d="M14 19C14 16.2386 16.2386 14 19 14C21.7614 14 24 16.2386 24 19C24 21.7614 21.7614 24 19 24C16.2386 24 14 21.7614 14 19ZM19 16C17.3432 16 16 17.3432 16 19C16 20.6568 17.3432 22 19 22C20.6568 22 22 20.6568 22 19C22 17.3432 20.6568 16 19 16Z"/>
				<path fill-rule="evenodd" clip-rule="evenodd" d="M14 5C14 2.23857 16.2386 0 19 0C21.7614 0 24 2.23857 24 5C24 7.76143 21.7614 10 19 10C16.2386 10 14 7.76143 14 5ZM19 2C17.3432 2 16 3.34315 16 5C16 6.65685 17.3432 8 19 8C20.6568 8 22 6.65685 22 5C22 3.34315 20.6568 2 19 2Z"/>
				<path fill-rule="evenodd" clip-rule="evenodd" d="M15.8321 6.44528C16.1384 6.90481 16.0142 7.52568 15.5547 7.83203L9.55471 11.832C9.09519 12.1384 8.47432 12.0142 8.16796 11.5547C7.86161 11.0952 7.98579 10.4743 8.44531 10.1679L14.4453 6.16793C14.9048 5.86158 15.5257 5.98576 15.8321 6.44528Z"/>
				<path fill-rule="evenodd" clip-rule="evenodd" d="M8.05131 14.6838C8.22596 14.1599 8.79228 13.8767 9.31622 14.0513L15.3162 16.0513C15.8402 16.226 16.1233 16.7923 15.9487 17.3163C15.774 17.8402 15.2077 18.1234 14.6838 17.9487L8.68377 15.9487C8.15983 15.7741 7.87667 15.2077 8.05131 14.6838Z"/>
			</g>
		</symbol>
		<symbol id="instagram" viewBox="0 0 170 170">
			<g fill-rule="evenodd">
				<path d="M122.406 0H46.654C20.929 0 0 20.93 0 46.655V122.407C0 148.133 20.929 169.062 46.654 169.062H122.406C148.133 169.062 169.062 148.132 169.062 122.407V46.655C169.063 20.93 148.133 0 122.406 0ZM154.063 122.407C154.063 139.862 139.862 154.062 122.407 154.062H46.654C29.2 154.063 15 139.862 15 122.407V46.655C15 29.201 29.2 15 46.654 15H122.406C139.861 15 154.062 29.201 154.062 46.655V122.407H154.063Z"/>
				<path d="M84.531 40.97C60.51 40.97 40.968 60.512 40.968 84.533C40.968 108.553 60.51 128.094 84.531 128.094C108.552 128.094 128.094 108.553 128.094 84.533C128.094 60.512 108.552 40.97 84.531 40.97ZM84.531 113.093C68.782 113.093 55.968 100.281 55.968 84.532C55.968 68.782 68.781 55.969 84.531 55.969C100.281 55.969 113.094 68.782 113.094 84.532C113.094 100.281 100.28 113.093 84.531 113.093Z"/>
				<path d="M129.921 28.251C127.031 28.251 124.192 29.421 122.151 31.471C120.1 33.511 118.921 36.351 118.921 39.251C118.921 42.142 120.101 44.981 122.151 47.031C124.191 49.071 127.031 50.251 129.921 50.251C132.821 50.251 135.651 49.071 137.701 47.031C139.751 44.981 140.921 42.141 140.921 39.251C140.921 36.351 139.751 33.511 137.701 31.471C135.661 29.421 132.821 28.251 129.921 28.251Z"/>
			</g>
		</symbol>
		<symbol id="facebook" viewBox="0 0 53 97">
			<g fill-rule="evenodd">
				<path d="M50.089 0.02L37.624 0C23.62 0 14.57 9.285 14.57 23.656V34.563H2.03703C0.954027 34.563 0.0770264 35.441 0.0770264 36.524V52.327C0.0770264 53.41 0.955027 54.287 2.03703 54.287H14.57V94.163C14.57 95.246 15.447 96.123 16.53 96.123H32.882C33.965 96.123 34.842 95.245 34.842 94.163V54.287H49.496C50.579 54.287 51.456 53.41 51.456 52.327L51.462 36.524C51.462 36.004 51.255 35.506 50.888 35.138C50.521 34.77 50.021 34.563 49.501 34.563H34.842V25.317C34.842 20.873 35.901 18.617 41.69 18.617L50.087 18.614C51.169 18.614 52.046 17.736 52.046 16.654V1.98C52.046 0.899 51.17 0.022 50.089 0.02Z"/>
			</g>
		</symbol>
		<symbol id="pinterest" viewBox="0 0 76 98">
			<g fill-rule="evenodd">
				<path d="M40.125 0C13.469 0 0.0289917 19.11 0.0289917 35.047C0.0289917 44.696 3.68199 53.279 11.516 56.479C12.802 57.004 13.954 56.498 14.328 55.076C14.586 54.091 15.199 51.608 15.472 50.573C15.848 49.166 15.701 48.673 14.665 47.447C12.406 44.782 10.962 41.332 10.962 36.445C10.962 22.267 21.57 9.575 38.586 9.575C53.65 9.575 61.928 18.781 61.928 31.075C61.928 47.251 54.769 60.903 44.142 60.903C38.272 60.903 33.88 56.049 35.288 50.096C36.974 42.989 40.239 35.318 40.239 30.189C40.239 25.597 37.776 21.766 32.674 21.766C26.674 21.766 21.855 27.973 21.855 36.287C21.855 41.583 23.644 45.165 23.644 45.165C23.644 45.165 17.503 71.18 16.429 75.736C14.284 84.808 16.107 95.931 16.261 97.054C16.35 97.72 17.205 97.878 17.593 97.376C18.148 96.653 25.293 87.832 27.722 79.017C28.409 76.521 31.666 63.597 31.666 63.597C33.616 67.314 39.313 70.589 45.372 70.589C63.406 70.589 75.643 54.148 75.643 32.139C75.644 15.498 61.547 0 40.125 0Z"/>
			</g>
		</symbol>
		<symbol id="linkedin" viewBox="0 0 23 22">
			<g fill-rule="evenodd">
				<path d="M5.366 2.973C5.366 4.349 4.331 5.452 2.667 5.452H2.636C1.034 5.453 0 4.348 0 2.973C0 1.564 1.067 0.490998 2.698 0.490998C4.331 0.489998 5.336 1.564 5.366 2.973ZM0.28 21.766H5.052V7.413H0.28V21.766ZM16.764 7.077C14.233 7.077 13.1 8.467 12.463 9.447V9.493H12.432C12.444 9.479 12.455 9.463 12.463 9.447V7.414H7.692C7.754 8.759 7.692 21.767 7.692 21.767H12.463V13.751C12.463 13.319 12.492 12.896 12.62 12.587C12.966 11.733 13.752 10.84 15.066 10.84C16.795 10.84 17.486 12.159 17.486 14.087V21.767H22.257V13.538C22.258 9.126 19.902 7.077 16.764 7.077Z" />
			</g>
		</symbol>
	</defs>
</svg>
